<svg width="96" height="101" viewBox="0 0 96 101" fill="none" xmlns="http://www.w3.org/2000/svg">
<rect width="96" height="101" fill="#D2D2D2"/>
<g id="Frame 1" clip-path="url(#clip0_0_1)">
<rect width="1440" height="960" transform="translate(-25 -11)" fill="white"/>
<g id="Rectangle 1" filter="url(#filter0_d_0_1)">
<path d="M-25 -11H1415V91C1415 102.598 1405.6 112 1394 112H-3.99998C-15.598 112 -25 102.598 -25 91V-11Z" fill="black"/>
</g>
<g id="arrow_back_ios">
<mask id="mask0_0_1" style="mask-type:alpha" maskUnits="userSpaceOnUse" x="0" y="0" width="96" height="101">
<rect id="Bounding box" width="96" height="101" fill="#D9D9D9"/>
</mask>
<g mask="url(#mask0_0_1)">
<path id="arrow_back_ios_2" d="M39.7577 90.3618L1.86932 50.5L39.7577 10.6382L45.0807 16.2183L12.4961 50.5L45.0807 84.7615L39.7577 90.3618Z" fill="white"/>
</g>
</g>
<path id="Retour" d="M97 95.2037H75.1818V87.8315C75.1818 86.127 75.473 84.7278 76.0554 83.6341C76.6307 82.5403 77.4226 81.7306 78.4311 81.2051C79.4396 80.6795 80.5866 80.4167 81.8722 80.4167C83.1577 80.4167 84.2976 80.6795 85.2919 81.2051C86.2862 81.7306 87.0675 82.5368 87.6357 83.6234C88.1967 84.71 88.4773 86.0985 88.4773 87.7889V93.7548H86.0909V87.8741C86.0909 86.7093 85.9205 85.7718 85.5795 85.0616C85.2386 84.3443 84.7557 83.8258 84.1307 83.5062C83.4986 83.1795 82.7457 83.0162 81.8722 83.0162C80.9986 83.0162 80.2351 83.1795 79.5817 83.5062C78.9283 83.8329 78.424 84.3549 78.0689 85.0723C77.7067 85.7896 77.5256 86.7377 77.5256 87.9167V92.5616H97V95.2037ZM87.1989 84.9338L97 79.5645V82.6326L87.1989 87.9167V84.9338ZM97.3409 69.6701C97.3409 71.2468 96.9929 72.6069 96.2969 73.7504C95.5937 74.8867 94.6136 75.7638 93.3565 76.3817C92.0923 76.9925 90.6222 77.2979 88.946 77.2979C87.2699 77.2979 85.7926 76.9925 84.5142 76.3817C83.2287 75.7638 82.2273 74.9045 81.5099 73.8036C80.7855 72.6957 80.4233 71.4031 80.4233 69.9258C80.4233 69.0735 80.5653 68.2319 80.8494 67.4009C81.1335 66.57 81.5952 65.8136 82.2344 65.1317C82.8665 64.4499 83.7045 63.9066 84.7486 63.5018C85.7926 63.0969 87.0781 62.8945 88.6051 62.8945H89.6705V75.5082H87.4972V65.4513C86.5739 65.4513 85.75 65.636 85.0256 66.0053C84.3011 66.3675 83.7294 66.886 83.3104 67.5607C82.8913 68.2283 82.6818 69.0167 82.6818 69.9258C82.6818 70.9272 82.9304 71.7937 83.4276 72.5252C83.9176 73.2496 84.5568 73.8072 85.3452 74.1978C86.1335 74.5884 86.9787 74.7837 87.8807 74.7837H89.3295C90.5653 74.7837 91.6129 74.5707 92.4723 74.1445C93.3246 73.7113 93.9744 73.1111 94.4219 72.3441C94.8622 71.5771 95.0824 70.6857 95.0824 69.6701C95.0824 69.0096 94.9901 68.413 94.8054 67.8803C94.6136 67.3406 94.3295 66.8754 93.9531 66.4847C93.5696 66.0941 93.0937 65.7923 92.5256 65.5792L93.2074 63.1502C94.0312 63.4059 94.7557 63.8356 95.3807 64.4393C95.9986 65.043 96.4815 65.7887 96.8295 66.6765C97.1705 67.5643 97.3409 68.5621 97.3409 69.6701ZM80.6364 51.9535H82.767V60.4336H80.6364V51.9535ZM76.7159 57.962V55.4478H92.3125C93.0227 55.4478 93.5554 55.3448 93.9105 55.1388C94.2585 54.9258 94.4929 54.6559 94.6136 54.3292C94.7273 53.9954 94.7841 53.6438 94.7841 53.2745C94.7841 52.9975 94.7699 52.7702 94.7415 52.5927C94.706 52.4151 94.6776 52.2731 94.6562 52.1665L96.9148 51.6552C96.9787 51.8256 97.0426 52.0636 97.1065 52.369C97.1776 52.6744 97.2131 53.0614 97.2131 53.5302C97.2131 54.2404 97.0604 54.9364 96.755 55.6183C96.4496 56.293 95.9844 56.854 95.3594 57.3015C94.7344 57.7418 93.946 57.962 92.9943 57.962H76.7159ZM97.3409 41.6996C97.3409 43.1768 96.9893 44.473 96.2862 45.5881C95.5831 46.696 94.5994 47.5625 93.3352 48.1875C92.071 48.8054 90.5937 49.1143 88.9034 49.1143C87.1989 49.1143 85.7109 48.8054 84.4396 48.1875C83.1683 47.5625 82.1811 46.696 81.478 45.5881C80.7749 44.473 80.4233 43.1768 80.4233 41.6996C80.4233 40.2223 80.7749 38.9297 81.478 37.8217C82.1811 36.7067 83.1683 35.8402 84.4396 35.2223C85.7109 34.5973 87.1989 34.2848 88.9034 34.2848C90.5937 34.2848 92.071 34.5973 93.3352 35.2223C94.5994 35.8402 95.5831 36.7067 96.2862 37.8217C96.9893 38.9297 97.3409 40.2223 97.3409 41.6996ZM95.0824 41.6996C95.0824 40.5774 94.7947 39.6541 94.2195 38.9297C93.6442 38.2053 92.8878 37.669 91.9503 37.321C91.0128 36.973 89.9972 36.799 88.9034 36.799C87.8097 36.799 86.7905 36.973 85.8459 37.321C84.9013 37.669 84.1378 38.2053 83.5554 38.9297C82.973 39.6541 82.6818 40.5774 82.6818 41.6996C82.6818 42.8217 82.973 43.745 83.5554 44.4695C84.1378 45.1939 84.9013 45.7301 85.8459 46.0781C86.7905 46.4261 87.8097 46.6001 88.9034 46.6001C89.9972 46.6001 91.0128 46.4261 91.9503 46.0781C92.8878 45.7301 93.6442 45.1939 94.2195 44.4695C94.7947 43.745 95.0824 42.8217 95.0824 41.6996ZM90.3097 20.1344H80.6364V17.6202H97V20.1344H94.2301V20.3049C95.0611 20.6884 95.7678 21.285 96.3501 22.0946C96.9254 22.9043 97.2131 23.927 97.2131 25.1628C97.2131 26.1856 96.9893 27.0946 96.5419 27.8901C96.0874 28.6856 95.4055 29.3106 94.4964 29.7651C93.5803 30.2196 92.4261 30.4469 91.0341 30.4469H80.6364V27.9327H90.8636C92.0568 27.9327 93.0085 27.5989 93.7187 26.9313C94.429 26.2566 94.7841 25.3972 94.7841 24.3532C94.7841 23.7282 94.6243 23.0925 94.3047 22.4462C93.9851 21.7928 93.495 21.2459 92.8345 20.8056C92.174 20.3581 91.3324 20.1344 90.3097 20.1344ZM97 13.0153H80.6364V10.5863H83.108V10.4158C82.2983 10.1175 81.6413 9.57778 81.1371 8.79653C80.6328 8.01528 80.3807 7.13459 80.3807 6.15448C80.3807 5.96982 80.3842 5.739 80.3913 5.46201C80.3984 5.18502 80.4091 4.9755 80.4233 4.83346H82.9801C82.9588 4.91868 82.9268 5.114 82.8842 5.41939C82.8345 5.71769 82.8097 6.03374 82.8097 6.36755C82.8097 7.163 82.9766 7.87323 83.3104 8.49823C83.6371 9.11613 84.0916 9.60618 84.674 9.9684C85.2493 10.3235 85.9062 10.5011 86.6449 10.5011H97V13.0153Z" fill="white"/>
</g>
<defs>
<filter id="filter0_d_0_1" x="-29" y="-11" width="1448" height="131" filterUnits="userSpaceOnUse" color-interpolation-filters="sRGB">
<feFlood flood-opacity="0" result="BackgroundImageFix"/>
<feColorMatrix in="SourceAlpha" type="matrix" values="0 0 0 0 0 0 0 0 0 0 0 0 0 0 0 0 0 0 127 0" result="hardAlpha"/>
<feOffset dy="4"/>
<feGaussianBlur stdDeviation="2"/>
<feComposite in2="hardAlpha" operator="out"/>
<feColorMatrix type="matrix" values="0 0 0 0 0 0 0 0 0 0 0 0 0 0 0 0 0 0 0.25 0"/>
<feBlend mode="normal" in2="BackgroundImageFix" result="effect1_dropShadow_0_1"/>
<feBlend mode="normal" in="SourceGraphic" in2="effect1_dropShadow_0_1" result="shape"/>
</filter>
<clipPath id="clip0_0_1">
<rect width="1440" height="960" fill="white" transform="translate(-25 -11)"/>
</clipPath>
</defs>
</svg>
