<svg width="129" height="136" viewBox="0 0 129 136" fill="none" xmlns="http://www.w3.org/2000/svg">
<g id="alternate_email">
<mask id="mask0_206_61" style="mask-type:alpha" maskUnits="userSpaceOnUse" x="0" y="0" width="129" height="136">
<rect id="Bounding box" width="129" height="136" fill="#D9D9D9"/>
</mask>
<g mask="url(#mask0_206_61)">
<path id="alternate_email_2" d="M64.5 124.667C57.0646 124.667 50.0771 123.179 43.5375 120.204C36.9979 117.229 31.3094 113.192 26.4719 108.092C21.6344 102.992 17.8047 96.9944 14.9828 90.1C12.1609 83.2055 10.75 75.8389 10.75 68C10.75 60.1611 12.1609 52.7944 14.9828 45.9C17.8047 39.0055 21.6344 33.0083 26.4719 27.9083C31.3094 22.8083 36.9979 18.7708 43.5375 15.7958C50.0771 12.8208 57.0646 11.3333 64.5 11.3333C71.9354 11.3333 78.9229 12.8208 85.4625 15.7958C92.0021 18.7708 97.6906 22.8083 102.528 27.9083C107.366 33.0083 111.195 39.0055 114.017 45.9C116.839 52.7944 118.25 60.1611 118.25 68V75.5083C118.25 80.7972 116.481 85.2597 112.942 88.8958C109.404 92.5319 105.081 94.35 99.975 94.35C96.75 94.35 93.7042 93.5236 90.8375 91.8708C87.9708 90.218 85.776 87.8805 84.2531 84.8583C81.924 88.0694 79.0125 90.4542 75.5188 92.0125C72.025 93.5708 68.3521 94.35 64.5 94.35C57.5125 94.35 51.5776 91.8 46.6953 86.7C41.813 81.6 39.3719 75.3667 39.3719 68C39.3719 60.6333 41.813 54.3528 46.6953 49.1583C51.5776 43.9639 57.5125 41.3666 64.5 41.3666C71.4875 41.3666 77.4224 43.9639 82.3047 49.1583C87.187 54.3528 89.6281 60.6333 89.6281 68V75.5083C89.6281 78.4361 90.6359 80.8916 92.6516 82.875C94.6672 84.8583 97.1083 85.85 99.975 85.85C102.752 85.85 105.148 84.8583 107.164 82.875C109.18 80.8916 110.188 78.4361 110.188 75.5083V68C110.188 54.5889 105.753 43.2083 96.8844 33.8583C88.0156 24.5083 77.2208 19.8333 64.5 19.8333C51.7792 19.8333 40.9844 24.5083 32.1156 33.8583C23.2469 43.2083 18.8125 54.5889 18.8125 68C18.8125 81.4111 23.2469 92.7916 32.1156 102.142C40.9844 111.492 51.7792 116.167 64.5 116.167H93.2562V124.667H64.5ZM64.5 85.85C69.2479 85.85 73.2792 84.1264 76.5938 80.6792C79.9083 77.2319 81.5656 73.0055 81.5656 68C81.5656 62.9 79.9083 58.6028 76.5938 55.1083C73.2792 51.6139 69.2479 49.8666 64.5 49.8666C59.7521 49.8666 55.7208 51.6139 52.4062 55.1083C49.0917 58.6028 47.4344 62.9 47.4344 68C47.4344 73.0055 49.0917 77.2319 52.4062 80.6792C55.7208 84.1264 59.7521 85.85 64.5 85.85Z" fill="#35A9B1"/>
</g>
</g>
</svg>
