<svg width="154" height="136" viewBox="0 0 154 136" fill="none" xmlns="http://www.w3.org/2000/svg">
<g id="3p">
<mask id="mask0_206_48" style="mask-type:alpha" maskUnits="userSpaceOnUse" x="0" y="0" width="154" height="136">
<rect id="Bounding box" width="154" height="136" fill="#D9D9D9"/>
</mask>
<g mask="url(#mask0_206_48)">
<path id="3p_2" d="M51.3325 79.3333H102.666V76.6417C102.666 72.675 100.393 69.6055 95.8481 67.4333C91.303 65.2611 85.02 64.175 76.9992 64.175C68.9784 64.175 62.6954 65.2611 58.1502 67.4333C53.6051 69.6055 51.3325 72.675 51.3325 76.6417V79.3333ZM76.9992 54.825C80.2637 54.825 83.0583 53.7985 85.383 51.7456C87.7077 49.6925 88.87 47.2246 88.87 44.3416C88.87 41.4587 87.7077 38.9908 85.383 36.9377C83.0583 34.8848 80.2637 33.8583 76.9992 33.8583C73.7347 33.8583 70.9401 34.8848 68.6153 36.9377C66.2907 38.9908 65.1284 41.4587 65.1284 44.3416C65.1284 47.2246 66.2907 49.6925 68.6153 51.7456C70.9401 53.7985 73.7347 54.825 76.9992 54.825ZM12.8325 124.667V19.8333C12.8325 17.5666 13.795 15.5833 15.72 13.8833C17.645 12.1833 19.8909 11.3333 22.4575 11.3333H131.541C134.108 11.3333 136.353 12.1833 138.278 13.8833C140.203 15.5833 141.166 17.5666 141.166 19.8333V93.5C141.166 95.7666 140.203 97.75 138.278 99.45C136.353 101.15 134.108 102 131.541 102H38.4992L12.8325 124.667ZM34.3284 93.5H131.541V19.8333H22.4575V104.833L34.3284 93.5Z" fill="#35A9B1"/>
</g>
</g>
</svg>
